<?xml version="1.0" encoding="UTF-8"?>
<svg id="Capa_1" data-name="Capa 1" xmlns="http://www.w3.org/2000/svg" viewBox="0 0 1920 1080">
  <defs>
    <style>
      .cls-1 {
        fill: none;
      }

      .cls-2 {
        fill: #84da00;
      }

      .cls-3 {
        fill: #fff;
      }
    </style>
  </defs>
  <path class="cls-3" d="M1315.79,622.59h-10.86v20.41h-6.58v-46.08h17.44c4.48,0,7.37,1.12,9.61,3.03,2.77,2.37,4.54,5.86,4.54,9.81s-1.77,7.44-4.54,9.81c-2.24,1.91-5.13,3.03-9.61,3.03M1304.93,616.34h10.53c3.16,0,4.87-.79,6.06-2.04,1.12-1.18,1.84-2.77,1.84-4.54s-.72-3.36-1.84-4.54c-1.19-1.25-2.9-2.04-6.06-2.04h-10.53v13.17ZM1268.05,643.66c-5.66,0-10.8-2.3-14.29-6.06-2.96-3.23-4.8-7.5-4.8-13.69v-26.99h6.58v27.32c0,4.34,1.06,7.04,2.9,9.08,2.3,2.57,5.73,4.08,9.61,4.08s7.31-1.51,9.61-4.08c1.84-2.04,2.9-4.74,2.9-9.08v-27.32h6.58v26.99c0,6.19-1.84,10.47-4.81,13.69-3.48,3.75-8.62,6.06-14.28,6.06ZM1243.06,596.92l-18.1,46.08h-4.61l-18.11-46.08h6.85l13.56,34.76,13.56-34.76h6.85ZM1173.96,633.32v-11.59c-1.91-2.5-5.07-4.41-8.82-4.41-6,0-9.95,4.8-9.95,10.2s4.28,10.2,10.27,10.2c3.16,0,6.39-1.58,8.5-4.41ZM1174.15,643v-2.83c-2.5,2.24-5.86,3.49-9.54,3.49-2.77,0-5.66-.79-7.77-2.04-4.67-2.77-7.9-7.9-7.9-14.09s3.29-11.39,7.97-14.15c2.1-1.25,4.67-1.97,7.57-1.97,3.49,0,6.84,1.05,9.67,3.49v-2.83h6.06v30.94h-6.06ZM1117.45,612.06v2.96c1.65-1.58,4.81-3.62,9.28-3.62s8.63,2.11,11.26,5.46c1.98,2.5,3.03,5.66,3.03,10.99v15.14h-6.26v-15.47c0-3.95-.72-5.79-1.84-7.17-1.45-1.84-3.82-3.03-6.38-3.03-4.08,0-7.05,2.17-8.89,4.41v21.26h-6.25v-30.94h6.05ZM1092.99,601.07c0-2.3,1.77-4.15,4.08-4.15s4.15,1.84,4.15,4.15-1.85,4.08-4.15,4.08-4.08-1.78-4.08-4.08ZM1093.97,643v-30.94h6.26v30.94h-6.26ZM1076.5,633.32v-11.59c-1.91-2.5-5.07-4.41-8.82-4.41-5.99,0-9.94,4.8-9.94,10.2s4.28,10.2,10.27,10.2c3.16,0,6.38-1.58,8.49-4.41ZM1076.7,643v-2.83c-2.51,2.24-5.86,3.49-9.55,3.49-2.76,0-5.66-.79-7.77-2.04-4.67-2.77-7.9-7.9-7.9-14.09s3.3-11.39,7.97-14.15c2.11-1.25,4.67-1.97,7.57-1.97,3.36,0,6.71,1.05,9.48,3.36v-18.5h6.25v46.74h-6.05ZM1019.99,612.06v2.96c1.65-1.58,4.81-3.62,9.29-3.62s8.62,2.11,11.25,5.46c1.98,2.5,3.03,5.66,3.03,10.99v15.14h-6.25v-15.47c0-3.95-.73-5.79-1.85-7.17-1.44-1.84-3.81-3.03-6.38-3.03-4.08,0-7.04,2.17-8.89,4.41v21.26h-6.25v-30.94h6.05ZM996.46,633.32v-11.59c-1.91-2.5-5.07-4.41-8.82-4.41-5.99,0-9.94,4.8-9.94,10.2s4.28,10.2,10.27,10.2c3.16,0,6.39-1.58,8.49-4.41ZM996.66,643v-2.83c-2.5,2.24-5.86,3.49-9.55,3.49-2.77,0-5.66-.79-7.77-2.04-4.67-2.77-7.9-7.9-7.9-14.09s3.29-11.39,7.96-14.15c2.11-1.25,4.67-1.97,7.57-1.97,3.49,0,6.85,1.05,9.68,3.49v-2.83h6.06v30.94h-6.06ZM950.85,616.87c-4.02,0-7.64,2.7-8.69,6.71h16.85c-.92-3.95-4.48-6.71-8.16-6.71ZM965.46,628.85h-23.83c.33,5.2,4.61,9.35,10.01,9.35,4.61,0,7.11-2.24,8.89-4.21l4.08,3.88c-2.3,2.96-6.71,5.79-13.03,5.79-9.02,0-16-6.85-16-16.13s6.32-16.13,15.08-16.13,14.88,6.98,14.88,16.13c0,.26,0,.72-.07,1.32ZM931.94,611.6l-.73,5.99c-.72-.2-1.45-.26-2.44-.26-3.23,0-6.65,2.24-8.36,5.2v20.47h-6.25v-30.94h6.06v3.55c1.51-2.11,4.74-4.21,9.28-4.21.66,0,1.71.07,2.44.2ZM886.84,607.78l-7.11,17.12h14.22l-7.11-17.12ZM901.39,643l-4.87-11.85h-19.42l-4.81,11.85h-6.85l19.09-46.08h4.61l19.09,46.08h-6.85ZM1302,547.07c0,4.8,3.42,8.69,8.42,8.69s8.43-3.88,8.43-8.69-3.42-8.76-8.43-8.76-8.42,3.95-8.42,8.76ZM1293.44,547.07c0-9.22,7.31-16.66,16.98-16.66s16.99,7.44,16.99,16.66-7.31,16.59-16.99,16.59-16.98-7.37-16.98-16.59ZM1282.91,551.55l6.58,4.94c-3.75,5-8.49,7.18-14.48,7.18-9.88,0-17.12-7.37-17.12-16.59s7.44-16.66,17.18-16.66c5.53,0,10.47,2.57,13.43,6.39l-6.06,5.33c-1.71-2.24-4.27-3.82-7.37-3.82-4.94,0-8.62,3.88-8.62,8.76s3.62,8.69,8.82,8.69c3.49,0,6.25-2.11,7.64-4.21ZM1241.76,519.75c0-3.09,2.5-5.46,5.59-5.46s5.6,2.37,5.6,5.46-2.5,5.46-5.6,5.46-5.59-2.37-5.59-5.46ZM1237.15,516.2l-1.32,7.31c-.72-.2-1.77-.33-2.56-.33-2.11,0-3.76.59-4.81,1.84-.72.92-1.19,2.11-1.19,5.07v.99h24.36v31.93h-8.56v-24.69h-15.8v24.69h-8.55v-24.69h-8.23v-7.24h8.23v-1.32c0-5.13,1.18-8.23,3.42-10.4,2.24-2.17,5.6-3.75,9.94-3.75,1.71,0,3.29.13,5.07.59ZM1204.22,531.07v31.93h-8.23v-2.57c-2.63,2.24-5.66,3.23-8.89,3.23-4.74,0-9.21-2.11-12.04-5.4-2.5-2.9-4.08-6.85-4.08-11.19,0-9.41,6.97-16.66,15.66-16.66,3.62,0,6.85,1.18,9.35,3.22v-2.57h8.23ZM1195.66,551.81v-9.54c-1.78-2.37-4.61-3.95-7.9-3.95-5,0-8.23,4.15-8.23,8.76,0,5,3.62,8.69,8.43,8.69,3.23,0,6.06-1.58,7.7-3.95ZM1190.4,515.6h9.21l-7.9,10.53h-5.92l4.61-10.53ZM1167.98,530.68l-.99,7.97c-.59-.2-1.84-.33-3.09-.33-3.75,0-6.72,2.7-7.77,4.61v20.08h-8.56v-31.93h8.23v3.23c1.91-2.37,5.4-3.88,9.28-3.88,1.25,0,1.98.13,2.9.26ZM1119.14,524.16c-8.75,0-15.34,7.04-15.34,15.8s6.85,15.8,15.74,15.8c4.21,0,7.63-1.45,10.27-3.55v-9.94h-11.85v-7.9h20.73v20.47c-4.08,5.2-10.92,8.82-19.35,8.82-14.35,0-24.42-10.47-24.42-23.7s9.94-23.7,24.29-23.7c6.85,0,12.7,2.57,16.85,6.58l-5.73,6.06c-2.76-2.76-6.64-4.74-11.19-4.74ZM1047.49,547.07c0,4.8,3.42,8.69,8.43,8.69s8.42-3.88,8.42-8.69-3.42-8.76-8.42-8.76-8.43,3.95-8.43,8.76ZM1038.93,547.07c0-9.22,7.31-16.66,16.99-16.66s16.98,7.44,16.98,16.66-7.31,16.59-16.98,16.59-16.99-7.37-16.99-16.59ZM1023.46,515.6l5.26,1.05c0,4.74-2.57,8.82-7.31,8.82-3.95,0-6.97-3.29-9.8-3.29-1.58,0-2.44,1.45-2.64,3.29l-5.26-1.05c0-4.74,2.56-8.82,7.3-8.82,3.95,0,6.98,3.29,9.81,3.29,1.58,0,2.44-1.45,2.64-3.29ZM1009.3,563h-8.56v-31.93h8.23v2.57c2.44-1.97,5.47-3.22,9.02-3.22,4.41,0,8.43,1.97,11.06,5.14,2.11,2.5,3.29,5.73,3.29,11.19v16.26h-8.56v-16.92c0-3.16-.72-4.8-1.9-5.99-1.12-1.12-2.84-1.78-4.81-1.78-3.62,0-6.58,2.3-7.77,3.95v20.74ZM971.57,542.92h13.17c-.26-2.83-2.83-5.6-6.32-5.6s-6.45,2.7-6.85,5.6ZM987.83,553.06l4.87,4.87c-3.09,3.69-8.16,5.73-13.1,5.73-9.54,0-16.72-6.58-16.72-16.59,0-8.89,6.06-16.66,15.53-16.66,8.82,0,15.08,7.44,15.08,16.33,0,.86-.07,1.71-.2,2.44h-22.12c.46,4.48,4.08,7.57,8.62,7.57,3.62,0,6.52-2.04,8.03-3.69ZM932.08,559.38l4.15-6.12c2.17,1.98,5.53,3.16,8.75,3.16,2.3,0,4.08-1.12,4.08-2.7,0-4.81-15.47-3.09-15.47-13.36,0-6.12,5.93-9.94,12.25-9.94,4.15,0,8.69,1.58,10.8,3.22l-4.02,6.19c-1.65-1.18-3.82-2.17-6.12-2.17s-4.35.92-4.35,2.57c0,4.15,15.47,2.5,15.47,13.56,0,6.12-5.99,9.87-12.71,9.87-4.41,0-9.08-1.51-12.84-4.28ZM915.47,519.75c0-3.09,2.5-5.46,5.6-5.46s5.6,2.37,5.6,5.46-2.5,5.46-5.6,5.46-5.6-2.37-5.6-5.46ZM925.35,531.07v31.93h-8.56v-31.93h8.56ZM870.38,516.92h14.48c7.31,0,12.11,1.58,15.87,4.34,5.66,4.21,9.15,11.06,9.15,18.7s-3.49,14.48-9.15,18.69c-3.75,2.77-8.56,4.35-15.87,4.35h-14.48v-46.08ZM900.99,539.96c0-3.82-1.25-7.37-3.36-10.01-2.57-3.22-6.32-5.13-11.78-5.13h-6.58v30.28h6.58c5.46,0,9.22-1.91,11.78-5.13,2.11-2.63,3.36-6.19,3.36-10.01ZM1249.16,462.92h13.16c-.26-2.83-2.83-5.6-6.32-5.6s-6.45,2.7-6.84,5.6ZM1265.42,473.06l4.87,4.87c-3.1,3.69-8.16,5.73-13.1,5.73-9.55,0-16.72-6.58-16.72-16.59,0-8.89,6.06-16.66,15.53-16.66,8.83,0,15.08,7.44,15.08,16.33,0,.86-.07,1.71-.2,2.44h-22.12c.46,4.48,4.08,7.57,8.63,7.57,3.62,0,6.51-2.04,8.03-3.69ZM1233.21,483h-8.23v-2.57c-2.63,2.24-5.66,3.23-8.88,3.23-4.74,0-9.22-2.11-12.05-5.4-2.5-2.9-4.08-6.85-4.08-11.19,0-9.41,6.98-16.66,15.67-16.66,3.48,0,6.51.99,9.01,2.96v-17.11h8.56v46.74ZM1224.65,471.81v-9.54c-1.77-2.37-4.6-3.95-7.89-3.95-5.01,0-8.23,4.15-8.23,8.76,0,5,3.62,8.69,8.42,8.69,3.23,0,6.06-1.58,7.7-3.95ZM1174.97,451.07v31.93h-8.23v-2.57c-2.63,2.24-5.66,3.23-8.89,3.23-4.74,0-9.21-2.11-12.04-5.4-2.5-2.9-4.08-6.85-4.08-11.19,0-9.41,6.97-16.66,15.66-16.66,3.62,0,6.85,1.18,9.35,3.22v-2.57h8.23ZM1166.41,471.81v-9.54c-1.78-2.37-4.61-3.95-7.9-3.95-5,0-8.23,4.15-8.23,8.76,0,5,3.62,8.69,8.43,8.69,3.23,0,6.06-1.58,7.7-3.95ZM1090.37,483h-8.56v-31.93h8.23v2.57c2.5-2.24,5.53-3.22,8.62-3.22,4.35,0,8.23,1.97,10.73,5,2.57-2.7,6.58-5,11.32-5,4.41,0,8.63,1.97,11.19,5.14,2.04,2.5,3.23,5.79,3.23,10.53v16.92h-8.56v-17.25c0-2.9-.59-4.34-1.58-5.46-1.31-1.45-3.16-1.97-4.8-1.97-3.69,0-6.59,2.57-7.71,4.21.14,1.05.27,2.24.27,3.55v16.92h-8.56v-17.25c0-2.9-.59-4.34-1.58-5.46-1.32-1.45-3.16-1.97-4.8-1.97-3.63,0-6.26,2.44-7.44,3.95v20.74ZM1071.92,451.07v31.93h-8.23v-2.57c-2.63,2.24-5.66,3.23-8.89,3.23-4.74,0-9.21-2.11-12.04-5.4-2.5-2.9-4.08-6.85-4.08-11.19,0-9.41,6.97-16.66,15.66-16.66,3.62,0,6.85,1.18,9.35,3.22v-2.57h8.23ZM1063.36,471.81v-9.54c-1.78-2.37-4.61-3.95-7.9-3.95-5,0-8.23,4.15-8.23,8.76,0,5,3.62,8.69,8.43,8.69,3.23,0,6.06-1.58,7.7-3.95ZM1035.68,450.68l-.99,7.97c-.59-.2-1.84-.33-3.09-.33-3.75,0-6.72,2.7-7.77,4.61v20.08h-8.56v-31.93h8.23v3.23c1.91-2.37,5.4-3.88,9.28-3.88,1.25,0,1.98.13,2.9.26ZM996.83,471.81v-9.54c-1.78-2.37-4.61-3.95-7.9-3.95-5,0-8.23,4.15-8.23,8.76,0,5,3.62,8.69,8.42,8.69,3.23,0,6.06-1.58,7.7-3.95ZM1005.38,451.07v30.15c0,5.73-.98,9.15-2.89,11.85-2.9,4.01-8.03,6.38-14.16,6.38s-12.18-2.9-15.34-6.58l5.4-5.6c1.71,1.84,4.67,4.61,9.94,4.61,2.76,0,5.07-.86,6.52-2.57,1.32-1.45,1.97-3.42,1.97-7.51v-1.05c-2.57,1.97-5.33,2.9-8.56,2.9-4.74,0-9.28-2.11-12.11-5.4-2.5-2.9-4.01-6.85-4.01-11.19,0-9.41,6.98-16.66,15.67-16.66,3.62,0,6.85,1.18,9.35,3.22v-2.57h8.23ZM941.48,467.07c0,4.8,3.42,8.69,8.43,8.69s8.43-3.88,8.43-8.69-3.42-8.76-8.43-8.76-8.43,3.95-8.43,8.76ZM932.92,467.07c0-9.22,7.31-16.66,16.98-16.66s16.98,7.44,16.98,16.66-7.31,16.59-16.98,16.59-16.98-7.37-16.98-16.59ZM929.93,450.68l-.99,7.97c-.59-.2-1.84-.33-3.09-.33-3.75,0-6.71,2.7-7.77,4.61v20.08h-8.56v-31.93h8.23v3.23c1.91-2.37,5.4-3.88,9.28-3.88,1.25,0,1.97.13,2.9.26ZM879.27,456.34h8.03c3.03,0,4.54-.72,5.6-1.84.99-1.05,1.51-2.37,1.51-3.88s-.53-2.9-1.51-3.95c-1.05-1.12-2.57-1.84-5.6-1.84h-8.03v11.52ZM887.69,464.24h-8.42v18.76h-8.89v-46.08h17.31c5.92,0,9.41,1.45,11.98,4.15,2.3,2.37,3.62,5.93,3.62,9.55s-1.32,7.17-3.62,9.54c-2.5,2.63-6.06,4.08-11.98,4.08Z"/>
  <path class="cls-2" d="M781.49,583.59h-162.02c-6.09,0-10.98-5.24-10.36-11.46.52-5.41,5.39-9.38,10.83-9.38h22.12c.42,0,.81-.02,1.23-.08h107.33c16.07,0,31.83-5.7,43.56-16.7,12.68-11.89,19.65-28.11,19.59-45.41-.06-13.87-4.72-26.68-12.52-36.99-2.45-3.22-2.14-7.86,1-10.42,6.38-5.16,10.56-12.93,10.87-21.69.21-5.61-3.93-11-9.52-11.44-6.11-.48-11.23,4.32-11.25,10.33,0,4.72-3.8,8.55-8.52,8.55h-31.92s-.17.02-.25.02h-137.28c-14.62,0-26.51,11.89-26.51,26.51l.46,97.23.04,10.96c0,.38-.02.73,0,1.1.83,16.74,15.26,29.59,32.02,29.59h33.1c4.14,0,7.49,3.35,7.49,7.48v2.93c0,17.22,13.95,31.15,31.15,31.15h90.3c17.7,0,32-14.85,31.11-32.73-.83-16.74-15.26-29.59-32.02-29.59l-.04.02"/>
  <rect class="cls-1" width="1920" height="1080"/>
</svg>
